<svg version="1.2" xmlns="http://www.w3.org/2000/svg" viewBox="0 0 832 576" width="100" height="100">
	<title>Logo_Adidas running-ai</title>
	<style>
		.s0 { fill: #000001 } 
	</style>
	<g id="Livello 1">
		<path id="&lt;Compound Path&gt;" fill-rule="evenodd" class="s0" d="m734.3 576c-29.8 0-50.5-17.4-40.4-55.2l26.6-99.1c10-37.4 40.1-54.8 70.1-54.8 29.2 0 48.5 17.1 39.1 52.5l-6.8 25.1h-36.8l6.3-23.6c3.2-12.1-2-18-11.4-18-9.7 0-18.8 6.2-22.5 20l-26 97.1c-3.8 14.1 1.9 20.3 11.4 20.3 9.7 0 18-5.6 21.7-19.5l5.7-21.2h-16.8l9.4-35.1h53.7l-15.5 57.8c-9.7 36.3-38.6 53.7-67.8 53.7zm-114.8-120.9l-31.4 117.4h-34.2l54.1-202.1h38.4l5.3 115.6 30.9-115.6h34l-54.2 202.1h-36.3zm-123.1 117.3l54.1-202h37.7l-54.1 202zm-62.3-117.3l-31.5 117.3h-34.2l54.1-202h38.4l5.3 115.6 31-115.6h33.9l-54.1 202h-36.3zm-128 0l-31.5 117.4h-34.2l54.1-202h38.4l5.3 115.6 31-115.6h33.9l-54.2 202h-36.2zm-138.6 64.9c-3.9 14.5 0.6 21 9.4 21 8.6 0 17.1-6.5 20.9-21l40.1-149.5h38.4l-40.1 149.5c-9.6 35.7-38 56.1-68.7 56.1-30.4 0-47.6-20.4-38.1-56.1l40.1-149.5h38zm-110.1-18.3h-0.9l-18.9 70.8h-37.5l54.1-202.1h49c28.6 0 46.5 16 36.8 52l-7.6 28.3c-5.8 21.8-19 36.8-35.8 44.5l12.6 77.3h-42.7zm24.9-96.5l-16.8 62.9h8.2c10.4 0 17.3-5.1 20.7-17.7l7.2-26.9c3.5-13-1-18.3-11.9-18.3z"/>
		<path id="&lt;Compound Path&gt;" class="s0" d="m144.2 273l19.9 34.7h137l-54.2-93.6zm119.8-105.4l80.8 140.1h137.4l-115.1-199.1zm117.8-107.7l142.9 247.9h137.4l-177.6-307.2z"/>
	</g>
</svg>