<svg version="1.2" xmlns="http://www.w3.org/2000/svg" viewBox="0 0 408 379" width="150" height="150">
	<title>Elemento sfondo-ai</title>
	<style>
		.s0 { fill: #cccece } 
	</style>
	<g id="Livello 1">
		<g id="&lt;Group&gt;">
			<g id="&lt;Group&gt;">
				<path id="&lt;Path&gt;" class="s0" d="m407.7 180.4v10.1h-9.7v-1.6h8.2v-8.5z"/>
				<path id="&lt;Compound Path&gt;" class="s0" d="m347.9 190.4h-16.7v-1.5h16.7zm33.4 0h-16.7v-1.5h16.7z"/>
				<path id="&lt;Path&gt;" class="s0" d="m314.5 188.9v1.5h-9.8v-10h1.5v8.5z"/>
				<path id="&lt;Compound Path&gt;" class="s0" d="m306.2 165.3h-1.5v-15.1h1.5zm0-30.2h-1.5v-15.1h1.5z"/>
				<path id="&lt;Path&gt;" class="s0" d="m314.5 94.9v1.5h-8.3v8.5h-1.5v-10z"/>
				<path id="&lt;Compound Path&gt;" class="s0" d="m347.9 96.4h-16.7v-1.5h16.7zm33.4 0h-16.7v-1.5h16.7z"/>
				<path id="&lt;Path&gt;" class="s0" d="m407.7 94.9v10h-1.5v-8.5h-8.2v-1.5z"/>
				<path id="&lt;Compound Path&gt;" class="s0" d="m407.7 165.3h-1.5v-15.1h1.5zm0-30.2h-1.5v-15.1h1.5z"/>
				<path id="&lt;Path&gt;" class="s0" d="m407.7 274.5v10h-9.7v-1.6h8.2v-8.4z"/>
				<path id="&lt;Compound Path&gt;" class="s0" d="m347.9 284.5h-16.7v-1.6h16.7zm33.4 0h-16.7v-1.5h16.7z"/>
				<path id="&lt;Path&gt;" class="s0" d="m314.5 282.9v1.6h-9.8v-10h1.5v8.4z"/>
				<path id="&lt;Compound Path&gt;" class="s0" d="m306.2 259.4h-1.5v-15.2h1.5zm0-30.2h-1.5v-15.1h1.5z"/>
				<path id="&lt;Path&gt;" class="s0" d="m314.5 188.9v1.5h-8.3v8.5h-1.5v-10z"/>
				<path id="&lt;Compound Path&gt;" class="s0" d="m347.9 190.4h-16.7v-1.5h16.7zm33.4 0h-16.7v-1.5h16.7z"/>
				<path id="&lt;Path&gt;" class="s0" d="m407.7 188.9v10h-1.5v-8.5h-8.2v-1.5z"/>
				<path id="&lt;Compound Path&gt;" class="s0" d="m407.7 259.4h-1.5v-15.2h1.5zm0-30.2h-1.5v-15.1h1.5z"/>
				<path id="&lt;Compound Path&gt;" class="s0" d="m407.6 165.3h-1.5v-15.1h1.5zm0-30.2h-1.5v-15.1h1.5z"/>
				<path id="&lt;Compound Path&gt;" class="s0" d="m407.6 259.4h-1.5v-15.2h1.5zm0-30.2h-1.5v-15.1h1.5z"/>
				<path id="&lt;Path&gt;" class="s0" d="m204.9 180.4v10.1h-9.7v-1.6h8.2v-8.5z"/>
				<path id="&lt;Compound Path&gt;" class="s0" d="m145.1 190.4h-16.7v-1.5h16.7zm33.4 0h-16.7v-1.5h16.7z"/>
				<path id="&lt;Path&gt;" class="s0" d="m111.7 188.9v1.5h-9.8v-10h1.5v8.5z"/>
				<path id="&lt;Compound Path&gt;" class="s0" d="m103.4 165.3h-1.5v-15.1h1.5zm0-30.2h-1.5v-15.1h1.5z"/>
				<path id="&lt;Path&gt;" class="s0" d="m111.7 94.9v1.5h-8.3v8.5h-1.5v-10z"/>
				<path id="&lt;Compound Path&gt;" class="s0" d="m145.1 96.4h-16.7v-1.5h16.7zm33.4 0h-16.7v-1.5h16.7z"/>
				<path id="&lt;Path&gt;" class="s0" d="m204.9 94.9v10h-1.5v-8.5h-8.2v-1.5z"/>
				<path id="&lt;Compound Path&gt;" class="s0" d="m204.9 165.3h-1.5v-15.1h1.5zm0-30.2h-1.5v-15.1h1.5z"/>
				<path id="&lt;Path&gt;" class="s0" d="m204.9 274.5v10h-9.7v-1.6h8.2v-8.4z"/>
				<path id="&lt;Compound Path&gt;" class="s0" d="m145.1 284.5h-16.7v-1.6h16.7zm33.4 0h-16.7v-1.5h16.7z"/>
				<path id="&lt;Path&gt;" class="s0" d="m111.7 282.9v1.6h-9.8v-10h1.5v8.4z"/>
				<path id="&lt;Compound Path&gt;" class="s0" d="m103.4 259.4h-1.5v-15.2h1.5zm0-30.2h-1.5v-15.1h1.5z"/>
				<path id="&lt;Path&gt;" class="s0" d="m111.7 188.9v1.5h-8.3v8.5h-1.5v-10z"/>
				<path id="&lt;Compound Path&gt;" class="s0" d="m145.1 190.4h-16.7v-1.5h16.7zm33.4 0h-16.7v-1.5h16.7z"/>
				<path id="&lt;Path&gt;" class="s0" d="m204.9 188.9v10h-1.5v-8.5h-8.2v-1.5z"/>
				<path id="&lt;Compound Path&gt;" class="s0" d="m204.9 259.4h-1.5v-15.2h1.5zm0-30.2h-1.5v-15.1h1.5z"/>
				<path id="&lt;Path&gt;" class="s0" d="m306.3 180.4v10.1h-9.8v-1.6h8.3v-8.5z"/>
				<path id="&lt;Compound Path&gt;" class="s0" d="m246.4 190.4h-16.7v-1.5h16.7zm33.4 0h-16.7v-1.5h16.7z"/>
				<path id="&lt;Path&gt;" class="s0" d="m213 188.9v1.5h-9.7v-10h1.5v8.5z"/>
				<path id="&lt;Compound Path&gt;" class="s0" d="m204.8 165.3h-1.5v-15.1h1.5zm0-30.2h-1.5v-15.1h1.5z"/>
				<path id="&lt;Path&gt;" class="s0" d="m213 94.9v1.5h-8.2v8.5h-1.5v-10z"/>
				<path id="&lt;Compound Path&gt;" class="s0" d="m246.4 96.4h-16.7v-1.5h16.7zm33.4 0h-16.7v-1.5h16.7z"/>
				<path id="&lt;Path&gt;" class="s0" d="m306.3 94.9v10h-1.5v-8.5h-8.3v-1.5z"/>
				<path id="&lt;Compound Path&gt;" class="s0" d="m306.3 165.3h-1.5v-15.1h1.5zm0-30.2h-1.5v-15.1h1.5z"/>
				<path id="&lt;Path&gt;" class="s0" d="m306.3 274.5v10h-9.8v-1.6h8.3v-8.4z"/>
				<path id="&lt;Compound Path&gt;" class="s0" d="m246.4 284.5h-16.7v-1.6h16.7zm33.4 0h-16.7v-1.5h16.7z"/>
				<path id="&lt;Path&gt;" class="s0" d="m213 282.9v1.6h-9.7v-10h1.5v8.4z"/>
				<path id="&lt;Compound Path&gt;" class="s0" d="m204.8 259.4h-1.5v-15.2h1.5zm0-30.2h-1.5v-15.1h1.5z"/>
				<path id="&lt;Path&gt;" class="s0" d="m213 188.9v1.5h-8.2v8.5h-1.5v-10z"/>
				<path id="&lt;Compound Path&gt;" class="s0" d="m246.4 190.4h-16.7v-1.5h16.7zm33.4 0h-16.7v-1.5h16.7z"/>
				<path id="&lt;Path&gt;" class="s0" d="m306.3 188.9v10h-1.5v-8.5h-8.3v-1.5z"/>
				<path id="&lt;Compound Path&gt;" class="s0" d="m306.3 259.4h-1.5v-15.2h1.5zm0-30.2h-1.5v-15.1h1.5z"/>
				<path id="&lt;Compound Path&gt;" class="s0" d="m347.9 2.4h-16.7v-1.5h16.7zm33.4 0h-16.7v-1.6h16.7z"/>
				<path id="&lt;Path&gt;" class="s0" d="m407.7 86.4v10h-9.7v-1.5h8.2v-8.5z"/>
				<path id="&lt;Compound Path&gt;" class="s0" d="m347.9 96.4h-16.7v-1.5h16.7zm33.4 0h-16.7v-1.6h16.7z"/>
				<path id="&lt;Path&gt;" class="s0" d="m314.5 94.9v1.5h-9.8v-10h1.5v8.5z"/>
				<path id="&lt;Compound Path&gt;" class="s0" d="m306.2 71.3h-1.5v-15.1h1.5zm0-30.2h-1.5v-15.1h1.5z"/>
				<path id="&lt;Path&gt;" class="s0" d="m314.5 0.9v1.5h-8.3v8.5h-1.5v-10z"/>
				<path id="&lt;Compound Path&gt;" class="s0" d="m347.9 2.4h-16.7v-1.5h16.7zm33.4 0h-16.7v-1.6h16.7z"/>
				<path id="&lt;Path&gt;" class="s0" d="m407.7 0.9v10h-1.5v-8.5h-8.2v-1.5z"/>
				<path id="&lt;Compound Path&gt;" class="s0" d="m407.7 71.3h-1.5v-15.1h1.5zm0-30.2h-1.5v-15.1h1.5z"/>
				<path id="&lt;Compound Path&gt;" class="s0" d="m407.6 71.3h-1.5v-15.1h1.5zm0-30.2h-1.5v-15.1h1.5z"/>
				<path id="&lt;Compound Path&gt;" class="s0" d="m145.1 2.4h-16.7v-1.5h16.7zm33.4 0h-16.7v-1.6h16.7z"/>
				<path id="&lt;Path&gt;" class="s0" d="m204.9 86.4v10h-9.7v-1.5h8.2v-8.5z"/>
				<path id="&lt;Compound Path&gt;" class="s0" d="m145.1 96.4h-16.7v-1.5h16.7zm33.4 0h-16.7v-1.6h16.7z"/>
				<path id="&lt;Path&gt;" class="s0" d="m111.7 94.9v1.5h-9.8v-10h1.5v8.5z"/>
				<path id="&lt;Compound Path&gt;" class="s0" d="m103.4 71.3h-1.5v-15.1h1.5zm0-30.2h-1.5v-15.1h1.5z"/>
				<path id="&lt;Path&gt;" class="s0" d="m111.7 0.9v1.5h-8.3v8.5h-1.5v-10z"/>
				<path id="&lt;Compound Path&gt;" class="s0" d="m145.1 2.4h-16.7v-1.5h16.7zm33.4 0h-16.7v-1.6h16.7z"/>
				<path id="&lt;Path&gt;" class="s0" d="m204.9 0.9v10h-1.5v-8.5h-8.2v-1.5z"/>
				<path id="&lt;Compound Path&gt;" class="s0" d="m204.9 71.3h-1.5v-15.1h1.5zm0-30.2h-1.5v-15.1h1.5z"/>
				<path id="&lt;Compound Path&gt;" class="s0" d="m246.4 2.4h-16.7v-1.5h16.7zm33.4 0h-16.7v-1.6h16.7z"/>
				<path id="&lt;Path&gt;" class="s0" d="m306.3 86.4v10h-9.8v-1.5h8.3v-8.5z"/>
				<path id="&lt;Compound Path&gt;" class="s0" d="m246.4 96.4h-16.7v-1.5h16.7zm33.4 0h-16.7v-1.6h16.7z"/>
				<path id="&lt;Path&gt;" class="s0" d="m213 94.9v1.5h-9.7v-10h1.5v8.5z"/>
				<path id="&lt;Compound Path&gt;" class="s0" d="m204.8 71.3h-1.5v-15.1h1.5zm0-30.2h-1.5v-15.1h1.5z"/>
				<path id="&lt;Path&gt;" class="s0" d="m213 0.9v1.5h-8.2v8.5h-1.5v-10z"/>
				<path id="&lt;Compound Path&gt;" class="s0" d="m246.4 2.4h-16.7v-1.5h16.7zm33.4 0h-16.7v-1.6h16.7z"/>
				<path id="&lt;Path&gt;" class="s0" d="m306.3 0.9v10h-1.5v-8.5h-8.3v-1.5z"/>
				<path id="&lt;Compound Path&gt;" class="s0" d="m306.3 71.3h-1.5v-15.1h1.5zm0-30.2h-1.5v-15.1h1.5z"/>
				<path id="&lt;Path&gt;" class="s0" d="m103.4 180.4v10.1h-9.7v-1.6h8.2v-8.5z"/>
				<path id="&lt;Compound Path&gt;" class="s0" d="m43.6 190.4h-16.7v-1.5h16.7zm33.4 0h-16.7v-1.5h16.7z"/>
				<path id="&lt;Path&gt;" class="s0" d="m10.2 188.9v1.5h-9.7v-10h1.5v8.5z"/>
				<path id="&lt;Compound Path&gt;" class="s0" d="m2 165.3h-1.5v-15.1h1.5zm0-30.2h-1.5v-15.1h1.5z"/>
				<path id="&lt;Path&gt;" class="s0" d="m10.2 94.9v1.5h-8.2v8.5h-1.5v-10z"/>
				<path id="&lt;Compound Path&gt;" class="s0" d="m43.6 96.4h-16.7v-1.5h16.7zm33.4 0h-16.7v-1.5h16.7z"/>
				<path id="&lt;Path&gt;" class="s0" d="m103.4 94.9v10h-1.5v-8.5h-8.2v-1.5z"/>
				<path id="&lt;Compound Path&gt;" class="s0" d="m103.4 165.3h-1.5v-15.1h1.5zm0-30.2h-1.5v-15.1h1.5z"/>
				<path id="&lt;Path&gt;" class="s0" d="m103.4 274.5v10h-9.7v-1.6h8.2v-8.4z"/>
				<path id="&lt;Compound Path&gt;" class="s0" d="m43.6 284.5h-16.7v-1.6h16.7zm33.4 0h-16.7v-1.5h16.7z"/>
				<path id="&lt;Path&gt;" class="s0" d="m10.2 282.9v1.6h-9.7v-10h1.5v8.4z"/>
				<path id="&lt;Compound Path&gt;" class="s0" d="m2 259.4h-1.5v-15.2h1.5zm0-30.2h-1.5v-15.1h1.5z"/>
				<path id="&lt;Path&gt;" class="s0" d="m10.2 188.9v1.5h-8.2v8.5h-1.5v-10z"/>
				<path id="&lt;Compound Path&gt;" class="s0" d="m43.6 190.4h-16.7v-1.5h16.7zm33.4 0h-16.7v-1.5h16.7z"/>
				<path id="&lt;Path&gt;" class="s0" d="m103.4 188.9v10h-1.5v-8.5h-8.2v-1.5z"/>
				<path id="&lt;Compound Path&gt;" class="s0" d="m103.4 259.4h-1.5v-15.2h1.5zm0-30.2h-1.5v-15.1h1.5z"/>
				<path id="&lt;Compound Path&gt;" class="s0" d="m43.6 2.4h-16.7v-1.5h16.7zm33.4 0h-16.7v-1.6h16.7z"/>
				<path id="&lt;Path&gt;" class="s0" d="m103.4 86.4v10h-9.7v-1.5h8.2v-8.5z"/>
				<path id="&lt;Compound Path&gt;" class="s0" d="m43.6 96.4h-16.7v-1.5h16.7zm33.4 0h-16.7v-1.6h16.7z"/>
				<path id="&lt;Path&gt;" class="s0" d="m10.2 94.9v1.5h-9.7v-10h1.5v8.5z"/>
				<path id="&lt;Compound Path&gt;" class="s0" d="m2 71.3h-1.5v-15.1h1.5zm0-30.2h-1.5v-15.1h1.5z"/>
				<path id="&lt;Path&gt;" class="s0" d="m10.2 0.9v1.5h-8.2v8.5h-1.5v-10z"/>
				<path id="&lt;Compound Path&gt;" class="s0" d="m43.6 2.4h-16.7v-1.5h16.7zm33.4 0h-16.7v-1.6h16.7z"/>
				<path id="&lt;Path&gt;" class="s0" d="m103.4 0.9v10h-1.5v-8.5h-8.2v-1.5z"/>
				<path id="&lt;Compound Path&gt;" class="s0" d="m103.4 71.3h-1.5v-15.1h1.5zm0-30.2h-1.5v-15.1h1.5z"/>
				<path id="&lt;Compound Path&gt;" class="s0" d="m348 378.5h-16.7v-1.5h16.7zm33.4 0h-16.7v-1.6h16.7z"/>
				<path id="&lt;Compound Path&gt;" class="s0" d="m145.2 378.5h-16.7v-1.5h16.7zm33.4 0h-16.7v-1.6h16.7z"/>
				<path id="&lt;Compound Path&gt;" class="s0" d="m246.5 378.5h-16.7v-1.5h16.7zm33.5 0h-16.8v-1.6h16.8z"/>
				<path id="&lt;Compound Path&gt;" class="s0" d="m348 284.5h-16.7v-1.6h16.7zm33.4 0h-16.7v-1.5h16.7z"/>
				<path id="&lt;Path&gt;" class="s0" d="m407.8 368.5v10h-9.7v-1.5h8.2v-8.5z"/>
				<path id="&lt;Compound Path&gt;" class="s0" d="m348 378.5h-16.7v-1.5h16.7zm33.4 0h-16.7v-1.6h16.7z"/>
				<path id="&lt;Path&gt;" class="s0" d="m314.6 377v1.5h-9.7v-10h1.5v8.5z"/>
				<path id="&lt;Compound Path&gt;" class="s0" d="m306.4 353.4h-1.5v-15.1h1.5zm0-30.3h-1.5v-15.1h1.5z"/>
				<path id="&lt;Path&gt;" class="s0" d="m314.6 282.9v1.6h-8.2v8.4h-1.5v-10z"/>
				<path id="&lt;Compound Path&gt;" class="s0" d="m348 284.5h-16.7v-1.6h16.7zm33.4 0h-16.7v-1.5h16.7z"/>
				<path id="&lt;Path&gt;" class="s0" d="m407.8 282.9v10h-1.5v-8.4h-8.2v-1.6z"/>
				<path id="&lt;Compound Path&gt;" class="s0" d="m407.8 353.4h-1.5v-15.1h1.5zm0-30.3h-1.5v-15.1h1.5z"/>
				<path id="&lt;Compound Path&gt;" class="s0" d="m407.7 353.4h-1.5v-15.1h1.5zm0-30.3h-1.5v-15.1h1.5z"/>
				<path id="&lt;Compound Path&gt;" class="s0" d="m145.2 284.5h-16.7v-1.6h16.7zm33.4 0h-16.7v-1.5h16.7z"/>
				<path id="&lt;Path&gt;" class="s0" d="m205 368.5v10h-9.7v-1.5h8.2v-8.5z"/>
				<path id="&lt;Compound Path&gt;" class="s0" d="m145.2 378.5h-16.7v-1.5h16.7zm33.4 0h-16.7v-1.6h16.7z"/>
				<path id="&lt;Path&gt;" class="s0" d="m111.8 377v1.5h-9.7v-10h1.5v8.5z"/>
				<path id="&lt;Compound Path&gt;" class="s0" d="m103.6 353.4h-1.5v-15.1h1.5zm0-30.3h-1.5v-15.1h1.5z"/>
				<path id="&lt;Path&gt;" class="s0" d="m111.8 282.9v1.6h-8.2v8.4h-1.5v-10z"/>
				<path id="&lt;Compound Path&gt;" class="s0" d="m145.2 284.5h-16.7v-1.6h16.7zm33.4 0h-16.7v-1.5h16.7z"/>
				<path id="&lt;Path&gt;" class="s0" d="m205 282.9v10h-1.5v-8.4h-8.2v-1.6z"/>
				<path id="&lt;Compound Path&gt;" class="s0" d="m205 353.4h-1.5v-15.1h1.5zm0-30.3h-1.5v-15.1h1.5z"/>
				<path id="&lt;Compound Path&gt;" class="s0" d="m246.5 284.5h-16.7v-1.6h16.7zm33.5 0h-16.8v-1.5h16.8z"/>
				<path id="&lt;Path&gt;" class="s0" d="m306.4 368.5v10h-9.7v-1.5h8.2v-8.5z"/>
				<path id="&lt;Compound Path&gt;" class="s0" d="m246.5 378.5h-16.7v-1.5h16.7zm33.5 0h-16.8v-1.6h16.8z"/>
				<path id="&lt;Path&gt;" class="s0" d="m213.1 377v1.5h-9.7v-10h1.5v8.5z"/>
				<path id="&lt;Compound Path&gt;" class="s0" d="m204.9 353.4h-1.5v-15.1h1.5zm0-30.3h-1.5v-15.1h1.5z"/>
				<path id="&lt;Path&gt;" class="s0" d="m213.1 282.9v1.6h-8.2v8.4h-1.5v-10z"/>
				<path id="&lt;Compound Path&gt;" class="s0" d="m246.5 284.5h-16.7v-1.6h16.7zm33.5 0h-16.8v-1.5h16.8z"/>
				<path id="&lt;Path&gt;" class="s0" d="m306.4 282.9v10h-1.5v-8.4h-8.2v-1.6z"/>
				<path id="&lt;Compound Path&gt;" class="s0" d="m306.4 353.4h-1.5v-15.1h1.5zm0-30.3h-1.5v-15.1h1.5z"/>
				<path id="&lt;Compound Path&gt;" class="s0" d="m43.7 378.5h-16.7v-1.5h16.7zm33.4 0h-16.7v-1.6h16.7z"/>
				<path id="&lt;Compound Path&gt;" class="s0" d="m43.7 284.5h-16.7v-1.6h16.7zm33.4 0h-16.7v-1.5h16.7z"/>
				<path id="&lt;Path&gt;" class="s0" d="m10.3 282.9v1.6h-9.7v-10h1.5v8.4z"/>
				<path id="&lt;Path&gt;" class="s0" d="m103.5 368.5v10h-9.7v-1.5h8.3v-8.5z"/>
				<path id="&lt;Compound Path&gt;" class="s0" d="m43.7 378.5h-16.7v-1.5h16.7zm33.4 0h-16.7v-1.6h16.7z"/>
				<path id="&lt;Path&gt;" class="s0" d="m10.3 377v1.5h-9.7v-10h1.5v8.5z"/>
				<path id="&lt;Compound Path&gt;" class="s0" d="m2.1 353.4h-1.5v-15.1h1.5zm0-30.3h-1.5v-15.1h1.5z"/>
				<path id="&lt;Path&gt;" class="s0" d="m10.3 282.9v1.6h-8.2v8.4h-1.5v-10z"/>
				<path id="&lt;Compound Path&gt;" class="s0" d="m43.7 284.5h-16.7v-1.6h16.7zm33.4 0h-16.7v-1.5h16.7z"/>
				<path id="&lt;Path&gt;" class="s0" d="m103.5 282.9v10h-1.4v-8.4h-8.3v-1.6z"/>
				<path id="&lt;Compound Path&gt;" class="s0" d="m103.5 353.4h-1.4v-15.1h1.4zm0-30.3h-1.4v-15.1h1.4z"/>
			</g>
			<path id="&lt;Compound Path&gt;" class="s0" d="m8.5 284l-0.1 1.6c-2.6-0.2-5.3-0.3-7.9-0.3v-1.5c2.6 0 5.4 0.1 8 0.2zm35.2 8.6l-0.6 1.4c-5.5-2.4-11.2-4.3-17-5.7l0.3-1.5c5.9 1.4 11.7 3.4 17.3 5.8zm30.3 19.9l-1 1.2c-4.3-4.2-9-7.9-14.1-11.2l0.8-1.3c5.1 3.3 10 7.2 14.3 11.3zm21.3 29.9l-1.4 0.7c-2.4-5.5-5.5-10.8-9-15.8l1.2-0.9c3.6 5.1 6.7 10.4 9.2 16zm7.7 36.1h-1.5c0-6.1-0.7-12.2-1.9-18.1l1.4-0.4c1.3 6.1 2 12.3 2 18.5z"/>
			<path id="&lt;Compound Path&gt;" class="s0" d="m16.5 190.4l-0.1 1.5c-5.3-0.4-10.6-0.6-15.9-0.6v-1.5c5.3 0 10.7 0.2 16 0.6zm35.7 5.5l-0.3 1.5c-5.8-1.4-11.8-2.6-17.7-3.5l0.3-1.5c5.9 0.9 11.9 2.1 17.7 3.5zm34.4 11.4l-0.6 1.4c-5.5-2.3-11.2-4.5-16.9-6.4l0.5-1.4c5.7 1.9 11.4 4 17 6.4zm31.9 17.2l-0.8 1.3c-5-3.3-10.2-6.4-15.5-9.2l0.7-1.4c5.3 2.9 10.6 6 15.6 9.3zm28.6 22.6l-1 1.2c-4.4-4.2-9-8.2-13.7-11.9l0.9-1.2c4.8 3.7 9.4 7.8 13.8 11.9zm24 27.7l-1.2 0.9c-3.5-4.9-7.3-9.7-11.3-14.3l1.2-1c4 4.6 7.8 9.4 11.3 14.4zm18.3 31.9l-1.4 0.6c-2.4-5.5-5.2-11-8.2-16.3l1.3-0.8c3 5.4 5.8 10.9 8.3 16.5zm11.4 35l-1.4 0.4c-1.3-6-2.9-11.9-4.8-17.7l1.4-0.5c1.9 5.8 3.6 11.8 4.8 17.8zm3.9 36.8h-1.5c0-6.1-0.3-12.3-0.9-18.3l1.4-0.2c0.7 6.1 1 12.3 1 18.5z"/>
			<path id="&lt;Compound Path&gt;" class="s0" d="m24.5 96.7l-0.1 1.5c-5.9-0.4-12-0.7-17.9-0.8v-1.5c6 0.1 12.1 0.3 18 0.8zm35.9 4.5l-0.3 1.5c-5.9-1-11.8-2-17.8-2.7l0.2-1.5c6 0.7 12 1.6 17.9 2.7zm35.1 8.5l-0.4 1.5c-5.7-1.7-11.6-3.3-17.4-4.7l0.3-1.5c5.9 1.4 11.8 3 17.5 4.7zm34 12.4l-0.6 1.4c-5.5-2.3-11.1-4.6-16.7-6.6l0.5-1.5c5.6 2.1 11.3 4.3 16.8 6.7zm32.5 16.2l-0.8 1.4c-5.2-3-10.5-5.9-15.9-8.6l0.7-1.4c5.4 2.7 10.7 5.6 16 8.6zm30.4 20l-0.9 1.2c-4.9-3.6-9.8-7.1-14.9-10.3l0.8-1.3c5.1 3.3 10.1 6.8 15 10.4zm27.8 23.5l-1 1.1c-4.3-4.1-8.9-8.2-13.5-12.1l0.9-1.2c4.7 3.9 9.3 8 13.6 12.2zm24.8 26.8l-1.1 1c-3.8-4.7-7.8-9.3-11.9-13.8l1-1c4.2 4.4 8.2 9.1 12 13.8zm21.3 29.8l-1.3 0.8c-3.1-5.1-6.5-10.2-10.1-15.2l1.2-0.9c3.6 5 7 10.1 10.2 15.3zm17.2 32.5l-1.4 0.6c-2.4-5.5-5.1-11-8-16.4l1.3-0.8c2.9 5.5 5.6 11 8.1 16.6zm12.7 34.6l-1.5 0.5c-1.7-5.9-3.6-11.8-5.7-17.5l1.4-0.5c2.1 5.7 4.1 11.6 5.8 17.5zm7.7 36.1l-1.5 0.3c-0.9-6.1-1.9-12.2-3.2-18.1l1.5-0.3c1.2 5.9 2.3 12.1 3.2 18.1zm2.6 36.9h-1.5c0-6.1-0.3-12.3-0.7-18.4l1.5-0.1c0.4 6.1 0.7 12.3 0.7 18.5z"/>
		</g>
	</g>
</svg>