<svg version="1.2" xmlns="http://www.w3.org/2000/svg" viewBox="0 0 557 193" width="557" height="193">
	<title>logo_TRC-ai</title>
	<defs>
		<linearGradient id="g1" x2="1" gradientUnits="userSpaceOnUse" gradientTransform="matrix(185.611,0,0,71,-1.303,63.081)">
			<stop offset="0" stop-color="#111416" stop-opacity="0"/>
			<stop offset="1" stop-color="#111416" stop-opacity="1"/>
		</linearGradient>
	</defs>
	<style>
		.s0 { fill: #111416 } 
		.s1 { fill: url(#g1) } 
	</style>
	<g id="Livello 1">
		<g id="&lt;Group&gt;">
			<g id="&lt;Group&gt;">
				<path id="&lt;Path&gt;" class="s0" d="m557.2 192.8l-27-47.8-14.5 8.5 22.2 39.3z"/>
				<path id="&lt;Path&gt;" class="s0" d="m513.6 161.3l-14.5 8.5 13.1 23h19.2z"/>
				<path id="&lt;Path&gt;" class="s0" d="m497.1 177.6l-14.5 8.5 3.8 6.7h19.3z"/>
			</g>
			<g id="&lt;Group&gt;">
				<path id="&lt;Compound Path&gt;" fill-rule="evenodd" class="s0" d="m189.8 63.1h16.7q7.7 0 11 3.5 3.3 3.6 3.3 9.3 0 3.5-0.8 8.1-0.9 4.7-2.1 7.8-1.1 3.2-2.5 5.3-1.4 2.1-3.2 3.4-1.7 1.3-3.9 2.3l3.8 31.3h-10.6l-3.2-29.4h-6.2l-5.9 29.4h-10.5zm10.4 32.4q3.9 0 6-3.1 2-3 3.1-8.4 0.3-1.6 0.5-3 0.2-1.5 0.2-2.7 0-2.7-1.2-4.2-1.2-1.5-4.4-1.5h-5.9l-4.6 22.9z"/>
				<path id="&lt;Compound Path&gt;" class="s0" d="m235.4 63.1h10.6l-10.8 53.6q-0.3 1.5-0.3 3.1 0 5.6 5.4 5.6 2.9 0 5.1-2.1 2.2-2.1 3-6l10.7-54.2h10.6l-10.8 54.3q-0.9 4.5-2.5 7.6-1.6 3.1-4.3 5.5-2.5 2.3-5.6 3.3-3.1 1.1-7.6 1.1-7.2 0-11.2-4.3-3.4-3.5-3.4-9.7 0-2.9 0.5-5.1z"/>
				<path id="&lt;Compound Path&gt;" class="s0" d="m281.4 63.1h8.9l7.1 43 8.2-43h10.6l-14.2 71h-8.5l-7.1-43-8.6 43h-10.6z"/>
				<path id="&lt;Compound Path&gt;" class="s0" d="m328.3 63.1h8.9l7.2 43 8.2-43h10.5l-14.1 71h-8.5l-7.2-43-8.5 43h-10.6z"/>
				<path id="&lt;Compound Path&gt;" class="s0" d="m375.3 63.1h10.6l-14.2 71h-10.5z"/>
				<path id="&lt;Compound Path&gt;" class="s0" d="m398.1 63.1h8.9l7.2 43 8.2-43h10.5l-14.1 71h-8.5l-7.2-43-8.5 43h-10.6z"/>
				<path id="&lt;Compound Path&gt;" class="s0" d="m468 115.1q-1.9 10.3-6.9 15-4.9 4.8-13.4 4.8-4.5 0-7.4-1.5-3-1.5-4.7-4.2-1.4-2.2-1.9-4.4-0.5-2.2-0.5-5.4 0-3.2 0.8-8.4 0.8-5.1 2.2-12.4 1.6-8.1 2.9-13.4 1.3-5.3 2.6-8.7 1.2-3.4 2.5-5.5 1.3-2 3-3.7 2.6-2.6 5.7-3.8 3.1-1.2 7.5-1.2 7.9 0 11.7 4.7 1.4 1.8 2.2 4.5 0.8 2.6 0.8 5.4 0 1.1 0 2.2-0.1 1-0.3 2.4h-10.5q0.2-1.1 0.2-2 0.1-1 0.1-2 0-2.4-1.1-4-1-1.7-3.9-1.7-3.2 0-5.1 2-1.1 1.1-1.9 2.7-0.8 1.5-1.7 4.2-0.8 2.7-1.8 7-1 4.3-2.3 10.9-1.4 6.9-2.2 12.2-0.8 5.3-0.8 8.5 0 6.1 5 6.1 3.5 0 5.6-2.5 2.1-2.5 3-7l2.4-11.8h-6.5l1.6-8.6h17z"/>
			</g>
			<path id="&lt;Path&gt;" class="s1" d="m184.3 63.1h-184.8l-0.8 71h171.4z"/>
			<g id="&lt;Group&gt;">
				<path id="&lt;Compound Path&gt;" class="s0" d="m209.9 8.9h-10.7l1.8-9h31.4l-1.8 9h-10.7l-11.6 58.2h-10z"/>
				<path id="&lt;Compound Path&gt;" class="s0" d="m240.4-0.1h10l-5.7 28.6h12.5l5.8-28.6h10l-13.4 67.2h-10.1l6-29.7h-12.6l-5.9 29.7h-10z"/>
				<path id="&lt;Compound Path&gt;" class="s0" d="m284.5-0.1h26.8l-1.8 9h-16.8l-4 19.9h14.5l-1.8 8.9h-14.4l-4.1 20.5h16.8l-1.8 8.9h-26.8z"/>
			</g>
			<g id="&lt;Group&gt;">
				<path id="&lt;Compound Path&gt;" class="s0" d="m376.1 124.2h10l-11.6 58.3h16.8l-1.8 9h-26.8z"/>
				<path id="&lt;Compound Path&gt;" fill-rule="evenodd" class="s0" d="m423.9 191.5l0.1-13.6h-14.9l-5.4 13.6h-10.7l29-67.3h9.8l2.1 67.3zm0.2-51.9l-11.4 29.3h11.2z"/>
				<path id="&lt;Compound Path&gt;" fill-rule="evenodd" class="s0" d="m454 124.2h14.9q4.1 0 6.8 0.9 2.7 0.9 4.5 3.2 2.4 3.1 2.4 8 0 1.3-0.1 2.8-0.2 1.6-0.6 3.6-0.8 3.9-1.8 6.5-1 2.6-3.5 4.9-1.6 1.5-3.8 2.4 0.9 0.3 1.8 1 0.8 0.7 1.2 1.4 1.2 1.6 1.5 3 0.4 1.4 0.4 3.3 0 1.5-0.1 3.2-0.2 1.7-0.6 3.8-0.7 3.2-1.4 5.6-0.7 2.4-1.5 4.2-0.8 1.8-1.8 3.2-1 1.3-2.1 2.4-2.6 2.3-5.7 3.1-3 0.8-7.9 0.8h-16zm3.3 58.3q4.3 0 6.4-2.4 2.1-2.4 3.3-8.3 0.6-2.9 0.6-5 0-6.2-6.1-6.2h-4.8l-4.3 21.9zm5.4-30.4q3.9 0 6-2.2 2.1-2.2 3.1-7.1 0.6-2.4 0.6-4.3 0-2.7-1.2-4-1.2-1.3-4.5-1.3h-4.5l-3.8 18.9z"/>
			</g>
		</g>
	</g>
</svg>